# xmcd
# Track frame offsets:
# 150
# 15214
# 27366
# 40847
# 54050
# 68996
# 80886
# 95231
# 106791
# 118659
# 133648
# 146309
# 162790
# 175397
# 188311
#
# Disc length: 2691 seconds
# Revision: 0
# Processed by: cddbd v1.5.1PL0 Copyright (c) Steve Scherf et al.
# Submitted via: VisiTrax 2.9.10.220 - For more info visit www.synapsa.com
#
DISCID=ba0a810f
DTITLE=Roy Clark - The Very Best of Roy Clark
DYEAR=2005
DGENRE=
TTITLE0=Yesterday When I Was Young
TTITLE1=Riders In The Sky
TTITLE2=Come Live With Me
TTITLE3=Honeymoon Feelin'
TTITLE4=Somwhere Between Love and Tomorrow
TTITLE5=If I Had To Do It All Over Again
TTITLE6=Tips Of My Fingers
TTITLE7=I Never Picked Cotton
TTITLE8=Thank God and Greyhound
TTITLE9=Right or Left at Oak Street
TTITLE10=Heart to Heart
TTITLE11=Then She's A Lover
TTITLE12=The Lawewnce Welk-Hee Haw Counter Revolution Polka
TTITLE13=Love Is Just a State of Mind
TTITLE14=Roy's Guitar Boogie
EXTD=
EXTT0=
EXTT1=
EXTT2=
EXTT3=
EXTT4=
EXTT5=
EXTT6=
EXTT7=
EXTT8=
EXTT9=
EXTT10=
EXTT11=
EXTT12=
EXTT13=
EXTT14=
PLAYORDER=
